<mxfile host="app.diagrams.net" modified="2020-04-30T07:19:53.194Z" agent="5.0 (Macintosh; Intel Mac OS X 10_13_6) AppleWebKit/537.36 (KHTML, like Gecko) Chrome/81.0.4044.129 Safari/537.36" etag="RmsJOdGv_v-NTDIf8k-A" version="13.0.3" type="github">
  <diagram name="Page-1" id="5f0bae14-7c28-e335-631c-24af17079c00">
    <mxGraphModel dx="730" dy="413" grid="1" gridSize="10" guides="1" tooltips="1" connect="1" arrows="1" fold="1" page="1" pageScale="1" pageWidth="1169" pageHeight="827" background="#ffffff" math="0" shadow="0">
      <root>
        <mxCell id="0" />
        <mxCell id="1" parent="0" />
        <mxCell id="VSYmshUo5lvBwlWYzg5F-6" value="GMS" style="rounded=0;whiteSpace=wrap;html=1;verticalAlign=top;align=center;dashed=1;" parent="1" vertex="1">
          <mxGeometry x="270" y="120" width="860" height="520" as="geometry" />
        </mxCell>
        <mxCell id="VSYmshUo5lvBwlWYzg5F-86" style="edgeStyle=none;rounded=1;comic=0;orthogonalLoop=1;jettySize=auto;html=1;exitX=0.5;exitY=1;exitDx=0;exitDy=0;entryX=0.5;entryY=0;entryDx=0;entryDy=0;shadow=0;startArrow=none;startFill=0;endArrow=classic;endFill=1;" parent="1" source="VSYmshUo5lvBwlWYzg5F-80" target="VSYmshUo5lvBwlWYzg5F-29" edge="1">
          <mxGeometry relative="1" as="geometry" />
        </mxCell>
        <mxCell id="VSYmshUo5lvBwlWYzg5F-90" style="edgeStyle=none;rounded=1;comic=0;orthogonalLoop=1;jettySize=auto;html=1;exitX=1;exitY=0.75;exitDx=0;exitDy=0;entryX=0;entryY=0.75;entryDx=0;entryDy=0;shadow=0;startArrow=classic;startFill=1;endArrow=classic;endFill=1;" parent="1" source="VSYmshUo5lvBwlWYzg5F-80" target="VSYmshUo5lvBwlWYzg5F-89" edge="1">
          <mxGeometry relative="1" as="geometry" />
        </mxCell>
        <mxCell id="VSYmshUo5lvBwlWYzg5F-83" style="edgeStyle=none;rounded=1;comic=0;orthogonalLoop=1;jettySize=auto;html=1;exitX=1;exitY=0.75;exitDx=0;exitDy=0;entryX=0;entryY=0.75;entryDx=0;entryDy=0;shadow=0;startArrow=classic;startFill=1;endArrow=classic;endFill=1;" parent="1" source="VSYmshUo5lvBwlWYzg5F-79" target="VSYmshUo5lvBwlWYzg5F-80" edge="1">
          <mxGeometry relative="1" as="geometry" />
        </mxCell>
        <mxCell id="VSYmshUo5lvBwlWYzg5F-84" style="edgeStyle=none;rounded=1;comic=0;orthogonalLoop=1;jettySize=auto;html=1;exitX=0.5;exitY=1;exitDx=0;exitDy=0;entryX=0.5;entryY=0;entryDx=0;entryDy=0;shadow=0;startArrow=none;startFill=0;endArrow=classic;endFill=1;" parent="1" source="VSYmshUo5lvBwlWYzg5F-77" target="VSYmshUo5lvBwlWYzg5F-80" edge="1">
          <mxGeometry relative="1" as="geometry" />
        </mxCell>
        <mxCell id="VSYmshUo5lvBwlWYzg5F-85" style="edgeStyle=none;rounded=1;comic=0;orthogonalLoop=1;jettySize=auto;html=1;exitX=0;exitY=1;exitDx=0;exitDy=0;entryX=0.5;entryY=0;entryDx=0;entryDy=0;shadow=0;startArrow=none;startFill=0;endArrow=classic;endFill=1;" parent="1" source="VSYmshUo5lvBwlWYzg5F-77" target="VSYmshUo5lvBwlWYzg5F-79" edge="1">
          <mxGeometry relative="1" as="geometry" />
        </mxCell>
        <mxCell id="VSYmshUo5lvBwlWYzg5F-93" style="edgeStyle=none;rounded=1;comic=0;orthogonalLoop=1;jettySize=auto;html=1;exitX=1;exitY=1;exitDx=0;exitDy=0;entryX=0;entryY=0;entryDx=0;entryDy=0;shadow=0;startArrow=none;startFill=0;endArrow=classic;endFill=1;" parent="1" source="VSYmshUo5lvBwlWYzg5F-77" target="VSYmshUo5lvBwlWYzg5F-89" edge="1">
          <mxGeometry relative="1" as="geometry" />
        </mxCell>
        <mxCell id="VSYmshUo5lvBwlWYzg5F-88" style="edgeStyle=none;rounded=1;comic=0;orthogonalLoop=1;jettySize=auto;html=1;exitX=0;exitY=1;exitDx=0;exitDy=0;entryX=1;entryY=0;entryDx=0;entryDy=0;shadow=0;startArrow=classic;startFill=1;endArrow=classic;endFill=1;" parent="1" source="VSYmshUo5lvBwlWYzg5F-78" target="VSYmshUo5lvBwlWYzg5F-79" edge="1">
          <mxGeometry relative="1" as="geometry" />
        </mxCell>
        <mxCell id="VSYmshUo5lvBwlWYzg5F-91" style="edgeStyle=none;rounded=1;comic=0;orthogonalLoop=1;jettySize=auto;html=1;entryX=0.5;entryY=0;entryDx=0;entryDy=0;shadow=0;startArrow=classic;startFill=1;endArrow=classic;endFill=1;" parent="1" source="VSYmshUo5lvBwlWYzg5F-78" target="VSYmshUo5lvBwlWYzg5F-89" edge="1">
          <mxGeometry relative="1" as="geometry" />
        </mxCell>
        <mxCell id="VSYmshUo5lvBwlWYzg5F-92" style="edgeStyle=none;rounded=1;comic=0;orthogonalLoop=1;jettySize=auto;html=1;exitX=0.25;exitY=1;exitDx=0;exitDy=0;entryX=1;entryY=0;entryDx=0;entryDy=0;shadow=0;startArrow=none;startFill=0;endArrow=classic;endFill=1;" parent="1" source="VSYmshUo5lvBwlWYzg5F-78" target="VSYmshUo5lvBwlWYzg5F-80" edge="1">
          <mxGeometry relative="1" as="geometry" />
        </mxCell>
        <mxCell id="VSYmshUo5lvBwlWYzg5F-103" style="rounded=1;comic=0;orthogonalLoop=1;jettySize=auto;html=1;exitX=1;exitY=0.5;exitDx=0;exitDy=0;entryX=0.001;entryY=0.687;entryDx=0;entryDy=0;entryPerimeter=0;shadow=0;startArrow=classic;startFill=1;endArrow=classic;endFill=1;" parent="1" source="VSYmshUo5lvBwlWYzg5F-2" target="VSYmshUo5lvBwlWYzg5F-6" edge="1">
          <mxGeometry relative="1" as="geometry" />
        </mxCell>
        <mxCell id="VSYmshUo5lvBwlWYzg5F-2" value="Website" style="rounded=0;whiteSpace=wrap;html=1;" parent="1" vertex="1">
          <mxGeometry x="110" y="457.5" width="90" height="40" as="geometry" />
        </mxCell>
        <mxCell id="VSYmshUo5lvBwlWYzg5F-69" style="edgeStyle=none;rounded=1;comic=0;orthogonalLoop=1;jettySize=auto;html=1;entryX=0;entryY=0.5;entryDx=0;entryDy=0;shadow=0;startArrow=none;startFill=0;endArrow=classic;endFill=1;" parent="1" source="VSYmshUo5lvBwlWYzg5F-3" target="VSYmshUo5lvBwlWYzg5F-65" edge="1">
          <mxGeometry relative="1" as="geometry" />
        </mxCell>
        <mxCell id="VSYmshUo5lvBwlWYzg5F-3" value="User" style="shape=umlActor;verticalLabelPosition=bottom;labelBackgroundColor=#ffffff;verticalAlign=top;html=1;outlineConnect=0;" parent="1" vertex="1">
          <mxGeometry x="30" y="272.5" width="30" height="60" as="geometry" />
        </mxCell>
        <mxCell id="VSYmshUo5lvBwlWYzg5F-4" value="Customer" style="shape=umlActor;verticalLabelPosition=bottom;labelBackgroundColor=#ffffff;verticalAlign=top;html=1;outlineConnect=0;" parent="1" vertex="1">
          <mxGeometry x="30" y="447.5" width="30" height="60" as="geometry" />
        </mxCell>
        <mxCell id="VSYmshUo5lvBwlWYzg5F-7" value="" style="endArrow=classic;html=1;entryX=0;entryY=0.5;entryDx=0;entryDy=0;" parent="1" source="VSYmshUo5lvBwlWYzg5F-4" target="VSYmshUo5lvBwlWYzg5F-2" edge="1">
          <mxGeometry width="50" height="50" relative="1" as="geometry">
            <mxPoint x="210" y="560" as="sourcePoint" />
            <mxPoint x="300" y="510" as="targetPoint" />
          </mxGeometry>
        </mxCell>
        <mxCell id="VSYmshUo5lvBwlWYzg5F-14" value="SMTP Server" style="shape=cube;whiteSpace=wrap;html=1;boundedLbl=1;backgroundOutline=1;darkOpacity=0.05;darkOpacity2=0.1;" parent="1" vertex="1">
          <mxGeometry x="980" y="10" width="120" height="80" as="geometry" />
        </mxCell>
        <mxCell id="VSYmshUo5lvBwlWYzg5F-25" value="ZIP API" style="shape=cube;whiteSpace=wrap;html=1;boundedLbl=1;backgroundOutline=1;darkOpacity=0.05;darkOpacity2=0.1;" parent="1" vertex="1">
          <mxGeometry x="310" y="10" width="120" height="80" as="geometry" />
        </mxCell>
        <mxCell id="VSYmshUo5lvBwlWYzg5F-26" value="" style="endArrow=classic;html=1;shadow=0;entryX=0.5;entryY=0;entryDx=0;entryDy=0;" parent="1" target="VSYmshUo5lvBwlWYzg5F-70" edge="1">
          <mxGeometry width="50" height="50" relative="1" as="geometry">
            <mxPoint x="370" y="90" as="sourcePoint" />
            <mxPoint x="440" y="110" as="targetPoint" />
          </mxGeometry>
        </mxCell>
        <mxCell id="VSYmshUo5lvBwlWYzg5F-29" value="PDF MS" style="rounded=0;whiteSpace=wrap;html=1;align=center;" parent="1" vertex="1">
          <mxGeometry x="640" y="590" width="60" height="30" as="geometry" />
        </mxCell>
        <mxCell id="VSYmshUo5lvBwlWYzg5F-40" style="edgeStyle=orthogonalEdgeStyle;rounded=1;comic=0;orthogonalLoop=1;jettySize=auto;html=1;exitX=1;exitY=0.75;exitDx=0;exitDy=0;entryX=0;entryY=0.75;entryDx=0;entryDy=0;shadow=0;startArrow=classic;startFill=1;endArrow=classic;endFill=1;" parent="1" source="VSYmshUo5lvBwlWYzg5F-77" target="VSYmshUo5lvBwlWYzg5F-78" edge="1">
          <mxGeometry relative="1" as="geometry" />
        </mxCell>
        <mxCell id="VSYmshUo5lvBwlWYzg5F-35" value="" style="endArrow=classic;startArrow=classic;html=1;shadow=0;exitX=0;exitY=0.75;exitDx=0;exitDy=0;entryX=1;entryY=0.75;entryDx=0;entryDy=0;" parent="1" source="VSYmshUo5lvBwlWYzg5F-77" target="VSYmshUo5lvBwlWYzg5F-70" edge="1">
          <mxGeometry width="50" height="50" relative="1" as="geometry">
            <mxPoint x="540" y="280" as="sourcePoint" />
            <mxPoint x="430" y="280" as="targetPoint" />
          </mxGeometry>
        </mxCell>
        <mxCell id="VSYmshUo5lvBwlWYzg5F-43" value="" style="endArrow=classic;startArrow=classic;html=1;entryX=0.5;entryY=1;entryDx=0;entryDy=0;" parent="1" edge="1">
          <mxGeometry width="50" height="50" relative="1" as="geometry">
            <mxPoint x="710" y="400" as="sourcePoint" />
            <mxPoint x="719.9999999999998" y="250" as="targetPoint" />
          </mxGeometry>
        </mxCell>
        <mxCell id="VSYmshUo5lvBwlWYzg5F-104" style="edgeStyle=none;rounded=1;comic=0;orthogonalLoop=1;jettySize=auto;html=1;exitX=1;exitY=0.5;exitDx=0;exitDy=0;entryX=0;entryY=0.35;entryDx=0;entryDy=0;entryPerimeter=0;shadow=0;startArrow=classic;startFill=1;endArrow=classic;endFill=1;" parent="1" source="VSYmshUo5lvBwlWYzg5F-65" target="VSYmshUo5lvBwlWYzg5F-6" edge="1">
          <mxGeometry relative="1" as="geometry" />
        </mxCell>
        <mxCell id="VSYmshUo5lvBwlWYzg5F-65" value="Browser" style="rounded=0;whiteSpace=wrap;html=1;" parent="1" vertex="1">
          <mxGeometry x="110" y="285" width="90" height="35" as="geometry" />
        </mxCell>
        <mxCell id="VSYmshUo5lvBwlWYzg5F-105" style="edgeStyle=orthogonalEdgeStyle;rounded=1;comic=0;orthogonalLoop=1;jettySize=auto;html=1;exitX=1;exitY=0.5;exitDx=0;exitDy=0;entryX=0.491;entryY=1.033;entryDx=0;entryDy=0;entryPerimeter=0;shadow=0;startArrow=none;startFill=0;endArrow=classic;endFill=1;" parent="1" source="VSYmshUo5lvBwlWYzg5F-89" target="VSYmshUo5lvBwlWYzg5F-14" edge="1">
          <mxGeometry relative="1" as="geometry" />
        </mxCell>
        <mxCell id="Z6qhqh9jcAhGlGNwQHIF-2" value="" style="group" vertex="1" connectable="0" parent="1">
          <mxGeometry x="310" y="155" width="120" height="165" as="geometry" />
        </mxCell>
        <mxCell id="VSYmshUo5lvBwlWYzg5F-98" value="" style="group" parent="Z6qhqh9jcAhGlGNwQHIF-2" vertex="1" connectable="0">
          <mxGeometry width="120" height="165" as="geometry" />
        </mxCell>
        <mxCell id="VSYmshUo5lvBwlWYzg5F-70" value="" style="rounded=0;whiteSpace=wrap;html=1;dashed=1;align=center;" parent="VSYmshUo5lvBwlWYzg5F-98" vertex="1">
          <mxGeometry width="120" height="165" as="geometry" />
        </mxCell>
        <mxCell id="VSYmshUo5lvBwlWYzg5F-5" value="ZIP DB" style="shape=cylinder;whiteSpace=wrap;html=1;boundedLbl=1;backgroundOutline=1;" parent="VSYmshUo5lvBwlWYzg5F-98" vertex="1">
          <mxGeometry x="35" y="5" width="50" height="50" as="geometry" />
        </mxCell>
        <mxCell id="VSYmshUo5lvBwlWYzg5F-27" value="ZIP MS" style="rounded=0;whiteSpace=wrap;html=1;align=center;" parent="VSYmshUo5lvBwlWYzg5F-98" vertex="1">
          <mxGeometry x="26.25" y="85" width="67.5" height="30" as="geometry" />
        </mxCell>
        <mxCell id="VSYmshUo5lvBwlWYzg5F-28" value="" style="endArrow=classic;startArrow=classic;html=1;shadow=0;" parent="VSYmshUo5lvBwlWYzg5F-98" source="VSYmshUo5lvBwlWYzg5F-27" target="VSYmshUo5lvBwlWYzg5F-5" edge="1">
          <mxGeometry width="50" height="50" relative="1" as="geometry">
            <mxPoint x="500" y="240" as="sourcePoint" />
            <mxPoint x="435" y="210" as="targetPoint" />
          </mxGeometry>
        </mxCell>
        <mxCell id="Z6qhqh9jcAhGlGNwQHIF-1" value="ZIP UI" style="rounded=0;whiteSpace=wrap;html=1;align=center;" vertex="1" parent="VSYmshUo5lvBwlWYzg5F-98">
          <mxGeometry x="26.25" y="125" width="67.5" height="30" as="geometry" />
        </mxCell>
        <mxCell id="Z6qhqh9jcAhGlGNwQHIF-4" value="" style="group" vertex="1" connectable="0" parent="1">
          <mxGeometry x="610" y="155" width="120" height="165" as="geometry" />
        </mxCell>
        <mxCell id="VSYmshUo5lvBwlWYzg5F-77" value="" style="rounded=0;whiteSpace=wrap;html=1;dashed=1;align=center;" parent="Z6qhqh9jcAhGlGNwQHIF-4" vertex="1">
          <mxGeometry width="120" height="165" as="geometry" />
        </mxCell>
        <mxCell id="VSYmshUo5lvBwlWYzg5F-1" value="Registry DB" style="shape=cylinder;whiteSpace=wrap;html=1;boundedLbl=1;backgroundOutline=1;" parent="Z6qhqh9jcAhGlGNwQHIF-4" vertex="1">
          <mxGeometry x="32.5" y="4" width="55" height="60" as="geometry" />
        </mxCell>
        <mxCell id="VSYmshUo5lvBwlWYzg5F-32" value="Registry MS" style="rounded=0;whiteSpace=wrap;html=1;align=center;" parent="Z6qhqh9jcAhGlGNwQHIF-4" vertex="1">
          <mxGeometry x="20" y="87.5" width="80" height="30" as="geometry" />
        </mxCell>
        <mxCell id="Z6qhqh9jcAhGlGNwQHIF-3" value="Registry UI" style="rounded=0;whiteSpace=wrap;html=1;align=center;" vertex="1" parent="Z6qhqh9jcAhGlGNwQHIF-4">
          <mxGeometry x="20" y="125" width="80" height="30" as="geometry" />
        </mxCell>
        <mxCell id="VSYmshUo5lvBwlWYzg5F-11" value="" style="endArrow=classic;startArrow=classic;html=1;entryX=0.5;entryY=1;entryDx=0;entryDy=0;" parent="Z6qhqh9jcAhGlGNwQHIF-4" source="VSYmshUo5lvBwlWYzg5F-32" target="VSYmshUo5lvBwlWYzg5F-1" edge="1">
          <mxGeometry width="50" height="50" relative="1" as="geometry">
            <mxPoint x="1100" y="555" as="sourcePoint" />
            <mxPoint x="1200" y="385" as="targetPoint" />
          </mxGeometry>
        </mxCell>
        <mxCell id="Z6qhqh9jcAhGlGNwQHIF-6" value="" style="group" vertex="1" connectable="0" parent="1">
          <mxGeometry x="890" y="155" width="120" height="165" as="geometry" />
        </mxCell>
        <mxCell id="VSYmshUo5lvBwlWYzg5F-78" value="" style="rounded=0;whiteSpace=wrap;html=1;dashed=1;align=center;" parent="Z6qhqh9jcAhGlGNwQHIF-6" vertex="1">
          <mxGeometry width="120" height="165" as="geometry" />
        </mxCell>
        <mxCell id="VSYmshUo5lvBwlWYzg5F-37" value="Subscr MS" style="rounded=0;whiteSpace=wrap;html=1;align=center;" parent="Z6qhqh9jcAhGlGNwQHIF-6" vertex="1">
          <mxGeometry x="20" y="87.5" width="80" height="30" as="geometry" />
        </mxCell>
        <mxCell id="VSYmshUo5lvBwlWYzg5F-38" value="Subscr DB" style="shape=cylinder;whiteSpace=wrap;html=1;boundedLbl=1;backgroundOutline=1;" parent="Z6qhqh9jcAhGlGNwQHIF-6" vertex="1">
          <mxGeometry x="32.5" y="5" width="55" height="60" as="geometry" />
        </mxCell>
        <mxCell id="Z6qhqh9jcAhGlGNwQHIF-5" value="Subscr UI" style="rounded=0;whiteSpace=wrap;html=1;align=center;" vertex="1" parent="Z6qhqh9jcAhGlGNwQHIF-6">
          <mxGeometry x="20" y="125" width="80" height="30" as="geometry" />
        </mxCell>
        <mxCell id="VSYmshUo5lvBwlWYzg5F-39" value="" style="endArrow=classic;startArrow=classic;html=1;entryX=0.5;entryY=1;entryDx=0;entryDy=0;" parent="Z6qhqh9jcAhGlGNwQHIF-6" source="VSYmshUo5lvBwlWYzg5F-37" target="VSYmshUo5lvBwlWYzg5F-38" edge="1">
          <mxGeometry width="50" height="50" relative="1" as="geometry">
            <mxPoint x="1490" y="547.5" as="sourcePoint" />
            <mxPoint x="1590" y="377.5" as="targetPoint" />
          </mxGeometry>
        </mxCell>
        <mxCell id="Z6qhqh9jcAhGlGNwQHIF-8" value="" style="group" vertex="1" connectable="0" parent="1">
          <mxGeometry x="890" y="395" width="120" height="165" as="geometry" />
        </mxCell>
        <mxCell id="VSYmshUo5lvBwlWYzg5F-89" value="" style="rounded=0;whiteSpace=wrap;html=1;dashed=1;align=center;" parent="Z6qhqh9jcAhGlGNwQHIF-8" vertex="1">
          <mxGeometry width="120" height="165" as="geometry" />
        </mxCell>
        <mxCell id="VSYmshUo5lvBwlWYzg5F-48" value="Mailing MS" style="rounded=0;whiteSpace=wrap;html=1;align=center;" parent="Z6qhqh9jcAhGlGNwQHIF-8" vertex="1">
          <mxGeometry x="22.5" y="40" width="75" height="30" as="geometry" />
        </mxCell>
        <mxCell id="VSYmshUo5lvBwlWYzg5F-55" value="Mailing DB" style="shape=cylinder;whiteSpace=wrap;html=1;boundedLbl=1;backgroundOutline=1;" parent="Z6qhqh9jcAhGlGNwQHIF-8" vertex="1">
          <mxGeometry x="32.5" y="100" width="55" height="60" as="geometry" />
        </mxCell>
        <mxCell id="Z6qhqh9jcAhGlGNwQHIF-7" value="Mailing UI" style="rounded=0;whiteSpace=wrap;html=1;align=center;" vertex="1" parent="Z6qhqh9jcAhGlGNwQHIF-8">
          <mxGeometry x="22.5" y="4" width="75" height="30" as="geometry" />
        </mxCell>
        <mxCell id="VSYmshUo5lvBwlWYzg5F-56" style="edgeStyle=none;rounded=1;comic=0;orthogonalLoop=1;jettySize=auto;html=1;exitX=0.5;exitY=1;exitDx=0;exitDy=0;entryX=0.5;entryY=0;entryDx=0;entryDy=0;shadow=0;startArrow=classic;startFill=1;endArrow=classic;endFill=1;" parent="Z6qhqh9jcAhGlGNwQHIF-8" source="VSYmshUo5lvBwlWYzg5F-48" target="VSYmshUo5lvBwlWYzg5F-55" edge="1">
          <mxGeometry relative="1" as="geometry" />
        </mxCell>
        <mxCell id="Z6qhqh9jcAhGlGNwQHIF-10" value="" style="group" vertex="1" connectable="0" parent="1">
          <mxGeometry x="610" y="395" width="120" height="165" as="geometry" />
        </mxCell>
        <mxCell id="VSYmshUo5lvBwlWYzg5F-80" value="" style="rounded=0;whiteSpace=wrap;html=1;dashed=1;align=center;" parent="Z6qhqh9jcAhGlGNwQHIF-10" vertex="1">
          <mxGeometry width="120" height="165" as="geometry" />
        </mxCell>
        <mxCell id="VSYmshUo5lvBwlWYzg5F-45" value="Reports MS" style="rounded=0;whiteSpace=wrap;html=1;align=center;" parent="Z6qhqh9jcAhGlGNwQHIF-10" vertex="1">
          <mxGeometry x="22.5" y="40" width="75" height="30" as="geometry" />
        </mxCell>
        <mxCell id="VSYmshUo5lvBwlWYzg5F-57" value="Reports DB" style="shape=cylinder;whiteSpace=wrap;html=1;boundedLbl=1;backgroundOutline=1;" parent="Z6qhqh9jcAhGlGNwQHIF-10" vertex="1">
          <mxGeometry x="32.5" y="100" width="55" height="60" as="geometry" />
        </mxCell>
        <mxCell id="Z6qhqh9jcAhGlGNwQHIF-9" value="Reports UI" style="rounded=0;whiteSpace=wrap;html=1;align=center;" vertex="1" parent="Z6qhqh9jcAhGlGNwQHIF-10">
          <mxGeometry x="22.5" y="4" width="75" height="30" as="geometry" />
        </mxCell>
        <mxCell id="VSYmshUo5lvBwlWYzg5F-58" style="edgeStyle=none;rounded=1;comic=0;orthogonalLoop=1;jettySize=auto;html=1;shadow=0;startArrow=classic;startFill=1;endArrow=classic;endFill=1;exitX=0.5;exitY=1;exitDx=0;exitDy=0;" parent="Z6qhqh9jcAhGlGNwQHIF-10" source="VSYmshUo5lvBwlWYzg5F-45" target="VSYmshUo5lvBwlWYzg5F-57" edge="1">
          <mxGeometry relative="1" as="geometry" />
        </mxCell>
        <mxCell id="Z6qhqh9jcAhGlGNwQHIF-12" value="" style="group" vertex="1" connectable="0" parent="1">
          <mxGeometry x="310" y="395" width="120" height="165" as="geometry" />
        </mxCell>
        <mxCell id="VSYmshUo5lvBwlWYzg5F-79" value="" style="rounded=0;whiteSpace=wrap;html=1;dashed=1;align=center;" parent="Z6qhqh9jcAhGlGNwQHIF-12" vertex="1">
          <mxGeometry width="120" height="165" as="geometry" />
        </mxCell>
        <mxCell id="VSYmshUo5lvBwlWYzg5F-59" value="Finance MS" style="rounded=0;whiteSpace=wrap;html=1;align=center;" parent="Z6qhqh9jcAhGlGNwQHIF-12" vertex="1">
          <mxGeometry x="20" y="40" width="80" height="30" as="geometry" />
        </mxCell>
        <mxCell id="VSYmshUo5lvBwlWYzg5F-60" value="Finance DB" style="shape=cylinder;whiteSpace=wrap;html=1;boundedLbl=1;backgroundOutline=1;" parent="Z6qhqh9jcAhGlGNwQHIF-12" vertex="1">
          <mxGeometry x="32.5" y="100" width="55" height="60" as="geometry" />
        </mxCell>
        <mxCell id="Z6qhqh9jcAhGlGNwQHIF-11" value="Finance UI" style="rounded=0;whiteSpace=wrap;html=1;align=center;" vertex="1" parent="Z6qhqh9jcAhGlGNwQHIF-12">
          <mxGeometry x="20" y="4" width="80" height="30" as="geometry" />
        </mxCell>
        <mxCell id="VSYmshUo5lvBwlWYzg5F-61" style="edgeStyle=none;rounded=1;comic=0;orthogonalLoop=1;jettySize=auto;html=1;entryX=0.5;entryY=1;entryDx=0;entryDy=0;shadow=0;startArrow=classic;startFill=1;endArrow=classic;endFill=1;" parent="Z6qhqh9jcAhGlGNwQHIF-12" source="VSYmshUo5lvBwlWYzg5F-60" target="VSYmshUo5lvBwlWYzg5F-59" edge="1">
          <mxGeometry relative="1" as="geometry" />
        </mxCell>
      </root>
    </mxGraphModel>
  </diagram>
</mxfile>
